#!OML:ASF E:\emotionWalksFemale\Project 1\Capture day 1\Session 1\Female1.ASF
:FULLY-SPECIFIED
:DEGREES
832
root 9.3378 15.358 -36.8887 178.01 -5.46927 -180.017
lowerback 6.29055 1.85547 0.381799
upperback -4.51848 2.41374 -0.311345
thorax -8.25772 1.10869 -0.858009
lowerneck -3.18169 -4.81486 -8.60791
upperneck 5.66107 -6.32842 4.95417
head 2.90023 -3.21738 2.92694
rclavicle 2.12327e-014 6.85807e-015
rhumerus -50.9512 14.4739 -97.5713
rradius 32.1487
rwrist 12.2153
rhand 4.72513 -55.6754
rfingers 7.12502
rthumb 30.1078 -83.2431
lclavicle 2.12327e-014 6.85807e-015
lhumerus -48.251 2.37558 81.561
lradius 36.3378
lwrist -13.2624
lhand -5.7123 -32.6843
lfingers 7.12502
lthumb 20.1089 -3.70497
rfemur -3.75696 20.7286 27.0513
rtibia 27.1488
rfoot -27.2116 -34.5352
rtoes 1.76981
lfemur -7.55056 -24.1492 -27.4786
ltibia 29.5802
lfoot -24.2245 19.3329
ltoes -16.132
833
root 9.33409 15.3567 -36.8909 177.91 -5.45279 -179.856
lowerback 6.28062 1.85352 0.613664
upperback -4.49075 2.43829 -0.279319
thorax -8.21315 1.10969 -0.956265
lowerneck -3.23264 -4.88155 -8.49803
upperneck 5.84035 -6.41374 4.74467
head 2.96214 -3.26585 2.8284
rclavicle -2.15184e-014 -3.67752e-015
rhumerus -50.7982 14.2099 -97.3374
rradius 32.1208
rwrist 12.3632
rhand 4.67154 -55.7117
rfingers 7.12502
rthumb 30.0566 -83.2887
lclavicle -2.15184e-014 -3.67752e-015
lhumerus -48.2518 2.68527 81.8004
lradius 36.5683
lwrist -12.8808
lhand -5.54165 -32.5373
lfingers 7.12502
lthumb 20.2729 -3.57529
rfemur -3.58651 20.6337 27.2408
rtibia 27.0325
rfoot -27.0694 -34.5354
rtoes 1.23204
lfemur -7.46557 -24.1478 -27.3788
ltibia 29.6845
lfoot -24.4147 19.3549
ltoes -16.2848
834
root 9.32994 15.3547 -36.8895 177.896 -5.46594 -179.926
lowerback 6.24505 1.84613 0.629229
upperback -4.47208 2.42764 -0.31223
thorax -8.17022 1.1033 -0.99646
lowerneck -3.33083 -4.83365 -8.51853
upperneck 6.06832 -6.35079 4.74893
head 3.05521 -3.23851 2.8344
rclavicle 2.3146e-014 -2.48481e-015
rhumerus -50.6074 14.0377 -97.1356
rradius 32.0961
rwrist 12.6609
rhand 4.46978 -55.772
rfingers 7.12502
rthumb 29.8641 -83.3837
lclavicle 2.3146e-014 -2.48481e-015
lhumerus -48.1532 2.97731 82.0683
lradius 36.6714
lwrist -12.4124
lhand -5.46869 -32.6224
lfingers 7.12502
lthumb 20.343 -3.6679
rfemur -3.52935 20.6652 27.1532
rtibia 26.9892
rfoot -27.108 -34.5321
rtoes 1.17244
lfemur -7.43159 -24.1717 -27.502
ltibia 29.7294
lfoot -24.5436 19.3243
ltoes -15.7162
835
root 9.32873 15.3499 -36.8915 177.625 -5.36462 -179.547
lowerback 6.3759 1.8392 1.01978
upperback -4.38721 2.47352 -0.189782
thorax -8.14332 1.11068 -1.09534
lowerneck -3.5462 -4.86641 -8.78761
upperneck 6.33793 -6.39259 5.03726
head 3.21964 -3.26 2.9783
rclavicle 2.41523e-014 4.57205e-015
rhumerus -50.3958 13.8758 -96.8947
rradius 32.104
rwrist 12.9501
rhand 4.82633 -55.9764
rfingers 7.12502
rthumb 30.2043 -83.5265
lclavicle 2.41523e-014 4.57205e-015
lhumerus -48.0505 3.21695 82.3949
lradius 36.7425
lwrist -11.7102
lhand -5.46834 -32.6933
lfingers 7.12502
lthumb 20.3434 -3.73883
rfemur -3.24258 20.5118 27.6367
rtibia 26.9145
rfoot -26.7592 -34.4761
rtoes 0.716751
lfemur -7.16571 -24.1985 -27.2159
ltibia 29.8064
lfoot -24.6322 19.3679
ltoes -15.3713
836
root 9.32064 15.3482 -36.8886 177.641 -5.33547 -179.724
lowerback 6.32455 1.8279 0.970296
upperback -4.38062 2.4469 -0.264193
thorax -8.1055 1.09849 -1.14035
lowerneck -3.3915 -4.75797 -8.712
upperneck 6.34663 -6.26712 5.01451
head 3.17824 -3.20003 2.96548
rclavicle 9.34288e-015 5.96354e-015
rhumerus -50.2027 13.7138 -96.6692
rradius 32.1656
rwrist 13.1828
rhand 5.39838 -56.1173
rfingers 7.12502
rthumb 30.7499 -83.5661
lclavicle 9.34288e-015 5.96354e-015
lhumerus -47.939 3.68023 82.5574
lradius 36.801
lwrist -11.2431
lhand -5.25401 -32.13
lfingers 7.12502
lthumb 20.5493 -3.19763
rfemur -3.2912 20.3792 27.3686
rtibia 26.9297
rfoot -26.3597 -34.5454
rtoes -0.289317
lfemur -7.13675 -24.1847 -27.4593
ltibia 29.8044
lfoot -24.5543 19.4465
ltoes -15.7581
837
root 9.32624 15.3467 -36.8973 177.51 -5.21796 -179.757
lowerback 6.35645 1.84969 0.820919
upperback -4.37801 2.46178 -0.266047
thorax -8.12719 1.11401 -1.06188
lowerneck -3.34706 -4.75974 -8.67856
upperneck 6.48194 -6.28793 5.05559
head 3.21844 -3.21283 2.97304
rclavicle 3.97569e-015 3.57812e-015
rhumerus -50.1533 13.6469 -96.6403
rradius 32.1668
rwrist 13.299
rhand 5.3021 -56.0796
rfingers 7.12502
rthumb 30.6581 -83.5457
lclavicle 3.97569e-015 3.57812e-015
lhumerus -48.0391 4.0903 82.645
lradius 37.0996
lwrist -10.8819
lhand -5.02097 -31.4382
lfingers 7.12502
lthumb 20.7733 -2.53018
rfemur -3.11906 20.8151 27.4735
rtibia 26.9285
rfoot -26.6631 -34.7931
rtoes 0.302799
lfemur -6.95702 -24.0738 -27.539
ltibia 29.8256
lfoot -24.6715 19.435
ltoes -15.6646
838
root 9.32633 15.3449 -36.8983 177.457 -5.19169 -179.844
lowerback 6.35167 1.82953 0.75115
upperback -4.35115 2.42518 -0.313802
thorax -8.09695 1.09945 -1.06755
lowerneck -3.23102 -4.69643 -8.64608
upperneck 6.42883 -6.22197 5.15339
head 3.17586 -3.17789 3.00651
rclavicle -1.2424e-014 -1.09332e-015
rhumerus -49.9954 13.6958 -96.6432
rradius 32.2414
rwrist 13.2047
rhand 5.84714 -56.32
rfingers 7.12502
rthumb 31.1777 -83.6875
lclavicle -1.2424e-014 -1.09332e-015
lhumerus -48.0937 4.08672 82.9471
lradius 37.5889
lwrist -10.0868
lhand -4.95801 -30.9841
lfingers 7.12502
lthumb 20.8338 -2.08268
rfemur -3.02204 20.7689 27.4248
rtibia 26.9929
rfoot -26.6648 -34.6405
rtoes 0.520032
lfemur -6.87152 -24.0052 -27.6608
ltibia 29.7995
lfoot -24.7416 19.3934
ltoes -15.7789
839
root 9.3199 15.3421 -36.8917 177.516 -5.20456 -179.936
lowerback 6.52106 1.80728 0.781033
upperback -4.48404 2.39097 -0.366381
thorax -8.33691 1.07369 -1.14427
lowerneck -3.2138 -4.70401 -8.68149
upperneck 6.57202 -6.24614 5.21621
head 3.22866 -3.19314 3.03405
rclavicle -5.88651e-014 -3.47873e-015
rhumerus -49.985 13.6462 -96.541
rradius 32.4422
rwrist 13.0515
rhand 7.10874 -56.7218
rfingers 7.12502
rthumb 32.3792 -83.8509
lclavicle -5.88651e-014 -3.47873e-015
lhumerus -48.1954 4.10102 83.259
lradius 37.8716
lwrist -9.41165
lhand -4.76653 -30.3312
lfingers 7.12502
lthumb 21.0177 -1.45007
rfemur -3.06026 20.2702 27.2347
rtibia 27.0485
rfoot -25.6818 -34.3592
rtoes -1.4194
lfemur -6.92931 -24.0338 -27.77
ltibia 29.7691
lfoot -24.7019 19.4534
ltoes -16.024
840
root 9.32065 15.3404 -36.8901 177.546 -5.15197 -179.863
lowerback 6.35694 1.80198 0.819566
upperback -4.40346 2.39223 -0.318213
thorax -8.15416 1.07731 -1.1074
lowerneck -3.31025 -4.67548 -8.69379
upperneck 6.59508 -6.19888 5.22489
head 3.2523 -3.16826 3.04016
rclavicle -1.18028e-014 -9.93923e-016
rhumerus -49.6746 13.7057 -96.373
rradius 32.5817
rwrist 12.8433
rhand 6.21911 -56.5022
rfingers 7.12502
rthumb 31.5321 -83.8009
lclavicle -1.18028e-014 -9.93923e-016
lhumerus -47.9491 4.39748 83.4843
lradius 37.9479
lwrist -9.21722
lhand -4.72008 -30.2638
lfingers 7.12502
lthumb 21.0623 -1.38763
rfemur -3.09158 20.16 27.3043
rtibia 27.0744
rfoot -26.4862 -33.9234
rtoes 0.817423
lfemur -6.97626 -24.0688 -27.6727
ltibia 29.7636
lfoot -24.7011 19.4844
ltoes -15.6431
841
root 9.32004 15.3404 -36.8967 177.503 -5.08688 -179.994
lowerback 6.18259 1.78315 0.628566
upperback -4.30041 2.35086 -0.300111
thorax -7.9505 1.0724 -0.967567
lowerneck -3.70446 -4.75609 -8.64915
upperneck 6.93247 -6.27265 5.0231
head 3.43906 -3.20961 2.95026
rclavicle 3.27001e-014 1.39149e-015
rhumerus -49.4435 13.8251 -96.2283
rradius 32.6688
rwrist 12.8302
rhand 3.00075 -55.3393
rfingers 7.12502
rthumb 28.4613 -83.1944
lclavicle 3.27001e-014 1.39149e-015
lhumerus -47.8418 4.40954 83.8577
lradius 38.1433
lwrist -8.85084
lhand -5.16555 -31.2546
lfingers 7.12502
lthumb 20.6343 -2.33144
rfemur -3.06206 20.3922 27.1999
rtibia 27.1441
rfoot -26.8606 -34.0328
rtoes 1.28825
lfemur -6.81699 -24.098 -27.88
ltibia 29.7069
lfoot -24.6536 19.6195
ltoes -15.4157
842
root 9.32224 15.346 -36.89 177.579 -4.96473 -179.853
lowerback 6.25815 1.79109 0.758253
upperback -4.37575 2.37528 -0.257047
thorax -8.07197 1.07561 -1.00228
lowerneck -3.74357 -4.72405 -8.6178
upperneck 7.01508 -6.23102 5.00084
head 3.46944 -3.1902 2.93813
rclavicle 9.06955e-015 3.77691e-015
rhumerus -49.3397 13.7526 -96.0877
rradius 32.8157
rwrist 12.8597
rhand 1.23357 -54.4894
rfingers 7.12502
rthumb 26.7714 -82.615
lclavicle 9.06955e-015 3.77691e-015
lhumerus -47.8453 3.99178 84.3384
lradius 38.4021
lwrist -8.24287
lhand -5.59679 -32.1096
lfingers 7.12502
lthumb 20.2199 -3.14198
rfemur -3.29383 20.8135 27.3222
rtibia 27.1416
rfoot -26.4693 -34.5117
rtoes -0.0865193
lfemur -6.96177 -24.0332 -27.6404
ltibia 29.7009
lfoot -24.5454 19.6772
ltoes -15.3855
